<svg xmlns="http://www.w3.org/2000/svg" xmlns:xlink="http://www.w3.org/1999/xlink" width="1920" zoomAndPan="magnify" viewBox="0 0 1440 809.999993" height="1080" preserveAspectRatio="xMidYMid meet" version="1.2"><defs><clipPath id="782a9556d8"><path d="M 0 354.878906 L 174.121094 354.878906 L 174.121094 454.375 L 0 454.375 Z M 0 354.878906 "/></clipPath><clipPath id="a63bda6a19"><path d="M 0 354.878906 L 174.121094 354.878906 L 174.121094 358 L 0 358 Z M 0 354.878906 "/></clipPath><clipPath id="ae2ec3049a"><path d="M 0 451 L 174.121094 451 L 174.121094 454.375 L 0 454.375 Z M 0 451 "/></clipPath><clipPath id="eacdbec5a5"><path d="M 158.550781 354.878906 L 332.671875 354.878906 L 332.671875 454.375 L 158.550781 454.375 Z M 158.550781 354.878906 "/></clipPath><clipPath id="a60843416d"><path d="M 158.550781 354.878906 L 332.671875 354.878906 L 332.671875 358 L 158.550781 358 Z M 158.550781 354.878906 "/></clipPath><clipPath id="828cca8797"><path d="M 158.550781 451 L 332.671875 451 L 332.671875 454.375 L 158.550781 454.375 Z M 158.550781 451 "/></clipPath><clipPath id="d2cb8311c4"><path d="M 626.226562 356.125 L 800.347656 356.125 L 800.347656 455.625 L 626.226562 455.625 Z M 626.226562 356.125 "/></clipPath><clipPath id="80be53580b"><path d="M 626.226562 356.125 L 800.347656 356.125 L 800.347656 359 L 626.226562 359 Z M 626.226562 356.125 "/></clipPath><clipPath id="c34ed3c089"><path d="M 626.226562 453 L 800.347656 453 L 800.347656 455.625 L 626.226562 455.625 Z M 626.226562 453 "/></clipPath><clipPath id="772e322fa6"><path d="M 478.566406 356.125 L 652.691406 356.125 L 652.691406 455.625 L 478.566406 455.625 Z M 478.566406 356.125 "/></clipPath><clipPath id="c1bfcde0cc"><path d="M 478.566406 356.125 L 652.691406 356.125 L 652.691406 359 L 478.566406 359 Z M 478.566406 356.125 "/></clipPath><clipPath id="e0a35f1075"><path d="M 478.566406 453 L 652.691406 453 L 652.691406 455.625 L 478.566406 455.625 Z M 478.566406 453 "/></clipPath><clipPath id="e1f5b8ae36"><path d="M 316.503906 354.878906 L 490.628906 354.878906 L 490.628906 454.375 L 316.503906 454.375 Z M 316.503906 354.878906 "/></clipPath><clipPath id="94082dbf20"><path d="M 316.503906 354.878906 L 490.628906 354.878906 L 490.628906 358 L 316.503906 358 Z M 316.503906 354.878906 "/></clipPath><clipPath id="ff22b8317a"><path d="M 316.503906 451 L 490.628906 451 L 490.628906 454.375 L 316.503906 454.375 Z M 316.503906 451 "/></clipPath><clipPath id="8ef4d426e9"><path d="M 780.292969 356.125 L 954.414062 356.125 L 954.414062 455.625 L 780.292969 455.625 Z M 780.292969 356.125 "/></clipPath><clipPath id="a1e3fdbd6e"><path d="M 780.292969 356.125 L 954.414062 356.125 L 954.414062 359 L 780.292969 359 Z M 780.292969 356.125 "/></clipPath><clipPath id="8748920538"><path d="M 780.292969 453 L 954.414062 453 L 954.414062 455.625 L 780.292969 455.625 Z M 780.292969 453 "/></clipPath><clipPath id="5cad8c8254"><path d="M 943.078125 356.125 L 1117.203125 356.125 L 1117.203125 455.625 L 943.078125 455.625 Z M 943.078125 356.125 "/></clipPath><clipPath id="a1b4fc82cd"><path d="M 943.078125 356.125 L 1117.203125 356.125 L 1117.203125 359 L 943.078125 359 Z M 943.078125 356.125 "/></clipPath><clipPath id="84f1de9fb3"><path d="M 943.078125 453 L 1117.203125 453 L 1117.203125 455.625 L 943.078125 455.625 Z M 943.078125 453 "/></clipPath><clipPath id="51ee473c7b"><path d="M 1104.464844 356.125 L 1278.589844 356.125 L 1278.589844 455.625 L 1104.464844 455.625 Z M 1104.464844 356.125 "/></clipPath><clipPath id="d076289339"><path d="M 1104.464844 356.125 L 1278.589844 356.125 L 1278.589844 359 L 1104.464844 359 Z M 1104.464844 356.125 "/></clipPath><clipPath id="9a8a012efe"><path d="M 1104.464844 453 L 1278.589844 453 L 1278.589844 455.625 L 1104.464844 455.625 Z M 1104.464844 453 "/></clipPath><clipPath id="5ff264d4e0"><path d="M 1265.855469 356.125 L 1439.980469 356.125 L 1439.980469 455.625 L 1265.855469 455.625 Z M 1265.855469 356.125 "/></clipPath><clipPath id="7027efa940"><path d="M 1265.855469 356.125 L 1439.980469 356.125 L 1439.980469 359 L 1265.855469 359 Z M 1265.855469 356.125 "/></clipPath><clipPath id="a28a0403b0"><path d="M 1265.855469 453 L 1439.980469 453 L 1439.980469 455.625 L 1265.855469 455.625 Z M 1265.855469 453 "/></clipPath></defs><g id="683e0a8520"><g clip-rule="nonzero" clip-path="url(#782a9556d8)"><path style=" stroke:none;fill-rule:nonzero;fill:#9298bd;fill-opacity:1;" d="M 0 354.910156 L 174.128906 354.910156 L 174.128906 454.34375 L 0 454.34375 Z M 0 354.910156 "/></g><path style=" stroke:none;fill-rule:nonzero;fill:#c8cbee;fill-opacity:1;" d="M 2.429688 357.347656 L 171.699219 357.347656 L 171.699219 451.90625 L 2.429688 451.90625 Z M 2.429688 357.347656 "/><g clip-rule="nonzero" clip-path="url(#a63bda6a19)"><path style=" stroke:none;fill-rule:nonzero;fill:#f3f3fc;fill-opacity:1;" d="M 2.429688 357.347656 L 0 354.910156 L 174.128906 354.910156 L 171.699219 357.347656 Z M 2.429688 357.347656 "/></g><g clip-rule="nonzero" clip-path="url(#ae2ec3049a)"><path style=" stroke:none;fill-rule:nonzero;fill:#666d97;fill-opacity:1;" d="M 171.699219 451.90625 L 174.128906 454.34375 L 0 454.34375 L 2.429688 451.90625 Z M 171.699219 451.90625 "/></g><path style=" stroke:none;fill-rule:nonzero;fill:#e6e7f7;fill-opacity:1;" d="M 2.429688 451.90625 L 12.15625 442.160156 L 161.972656 367.097656 L 171.699219 357.347656 L 2.429688 357.347656 Z M 2.429688 451.90625 "/><path style=" stroke:none;fill-rule:nonzero;fill:#666d97;fill-opacity:1;" d="M 161.972656 367.097656 L 161.972656 442.160156 L 12.15625 442.160156 L 12.15625 367.097656 Z M 161.972656 367.097656 "/><path style=" stroke:none;fill-rule:nonzero;fill:#3e425c;fill-opacity:1;" d="M 20.746094 367.097656 L 153.382812 367.097656 L 153.382812 442.160156 L 20.746094 442.160156 Z M 20.746094 367.097656 "/><path style=" stroke:none;fill-rule:nonzero;fill:#dbddf4;fill-opacity:1;" d="M 161.972656 383.941406 L 12.15625 383.941406 C 19.976562 372.011719 14.3125 380.660156 20.746094 370.835938 L 153.382812 370.835938 C 157.875 377.683594 154.144531 372 161.972656 383.941406 Z M 161.972656 383.941406 "/><path style=" stroke:none;fill-rule:nonzero;fill:#a4a9cb;fill-opacity:1;" d="M 155.824219 374.554688 L 16.84375 376.796875 L 20.746094 370.835938 L 153.382812 370.835938 Z M 155.824219 374.554688 "/><path style=" stroke:none;fill-rule:nonzero;fill:#a4a9cb;fill-opacity:1;" d="M 12.15625 383.941406 L 161.972656 383.941406 L 161.972656 385.128906 L 12.15625 385.128906 Z M 12.15625 383.941406 "/><path style=" stroke:none;fill-rule:nonzero;fill:#dbddf4;fill-opacity:1;" d="M 161.972656 402.101562 L 12.15625 402.101562 C 17.824219 393.457031 15.800781 396.542969 20.746094 388.992188 L 153.382812 388.992188 C 156.464844 393.699219 154.523438 390.738281 161.972656 402.101562 Z M 161.972656 402.101562 "/><path style=" stroke:none;fill-rule:nonzero;fill:#a4a9cb;fill-opacity:1;" d="M 155.816406 392.710938 L 16.84375 394.953125 L 20.746094 388.992188 L 153.382812 388.992188 Z M 155.816406 392.710938 "/><path style=" stroke:none;fill-rule:nonzero;fill:#a4a9cb;fill-opacity:1;" d="M 12.15625 402.101562 L 161.972656 402.101562 L 161.972656 403.292969 L 12.15625 403.292969 Z M 12.15625 402.101562 "/><path style=" stroke:none;fill-rule:nonzero;fill:#dbddf4;fill-opacity:1;" d="M 161.972656 420.265625 L 12.15625 420.265625 C 17.824219 411.617188 15.800781 414.703125 20.746094 407.152344 L 153.382812 407.152344 C 156.464844 411.859375 154.523438 408.898438 161.972656 420.265625 Z M 161.972656 420.265625 "/><path style=" stroke:none;fill-rule:nonzero;fill:#a4a9cb;fill-opacity:1;" d="M 155.816406 410.871094 L 16.84375 413.113281 L 20.746094 407.152344 L 153.382812 407.152344 Z M 155.816406 410.871094 "/><path style=" stroke:none;fill-rule:nonzero;fill:#a4a9cb;fill-opacity:1;" d="M 12.15625 420.265625 L 161.972656 420.265625 L 161.972656 421.453125 L 12.15625 421.453125 Z M 12.15625 420.265625 "/><path style=" stroke:none;fill-rule:nonzero;fill:#dbddf4;fill-opacity:1;" d="M 161.972656 438.421875 L 12.15625 438.421875 C 17.8125 429.796875 15.828125 432.824219 20.746094 425.3125 L 153.382812 425.3125 C 156.457031 429.996094 154.585938 427.144531 161.972656 438.421875 Z M 161.972656 438.421875 "/><path style=" stroke:none;fill-rule:nonzero;fill:#a4a9cb;fill-opacity:1;" d="M 155.824219 429.03125 L 16.84375 431.273438 L 20.746094 425.3125 L 153.382812 425.3125 Z M 155.824219 429.03125 "/><path style=" stroke:none;fill-rule:nonzero;fill:#a4a9cb;fill-opacity:1;" d="M 12.15625 438.425781 L 161.972656 438.425781 L 161.972656 439.613281 L 12.15625 439.613281 Z M 12.15625 438.425781 "/><g clip-rule="nonzero" clip-path="url(#eacdbec5a5)"><path style=" stroke:none;fill-rule:nonzero;fill:#9298bd;fill-opacity:1;" d="M 158.550781 354.910156 L 332.679688 354.910156 L 332.679688 454.34375 L 158.550781 454.34375 Z M 158.550781 354.910156 "/></g><path style=" stroke:none;fill-rule:nonzero;fill:#c8cbee;fill-opacity:1;" d="M 160.980469 357.347656 L 330.246094 357.347656 L 330.246094 451.90625 L 160.980469 451.90625 Z M 160.980469 357.347656 "/><g clip-rule="nonzero" clip-path="url(#a60843416d)"><path style=" stroke:none;fill-rule:nonzero;fill:#f3f3fc;fill-opacity:1;" d="M 160.980469 357.347656 L 158.550781 354.910156 L 332.679688 354.910156 L 330.246094 357.347656 Z M 160.980469 357.347656 "/></g><g clip-rule="nonzero" clip-path="url(#828cca8797)"><path style=" stroke:none;fill-rule:nonzero;fill:#666d97;fill-opacity:1;" d="M 330.246094 451.90625 L 332.679688 454.34375 L 158.550781 454.34375 L 160.980469 451.90625 Z M 330.246094 451.90625 "/></g><path style=" stroke:none;fill-rule:nonzero;fill:#e6e7f7;fill-opacity:1;" d="M 160.980469 451.90625 L 170.707031 442.160156 L 320.523438 367.097656 L 330.246094 357.347656 L 160.980469 357.347656 Z M 160.980469 451.90625 "/><path style=" stroke:none;fill-rule:nonzero;fill:#666d97;fill-opacity:1;" d="M 320.523438 367.097656 L 320.523438 442.160156 L 170.707031 442.160156 L 170.707031 367.097656 Z M 320.523438 367.097656 "/><path style=" stroke:none;fill-rule:nonzero;fill:#3e425c;fill-opacity:1;" d="M 179.296875 367.097656 L 311.933594 367.097656 L 311.933594 442.160156 L 179.296875 442.160156 Z M 179.296875 367.097656 "/><path style=" stroke:none;fill-rule:nonzero;fill:#dbddf4;fill-opacity:1;" d="M 320.523438 383.941406 L 170.707031 383.941406 C 178.527344 372.011719 172.863281 380.660156 179.296875 370.835938 L 311.933594 370.835938 C 316.425781 377.683594 312.695312 372 320.523438 383.941406 Z M 320.523438 383.941406 "/><path style=" stroke:none;fill-rule:nonzero;fill:#a4a9cb;fill-opacity:1;" d="M 314.371094 374.554688 L 175.394531 376.796875 L 179.296875 370.835938 L 311.933594 370.835938 Z M 314.371094 374.554688 "/><path style=" stroke:none;fill-rule:nonzero;fill:#a4a9cb;fill-opacity:1;" d="M 170.707031 383.941406 L 320.523438 383.941406 L 320.523438 385.128906 L 170.707031 385.128906 Z M 170.707031 383.941406 "/><path style=" stroke:none;fill-rule:nonzero;fill:#dbddf4;fill-opacity:1;" d="M 320.523438 402.101562 L 170.707031 402.101562 C 176.375 393.457031 174.351562 396.542969 179.296875 388.992188 L 311.933594 388.992188 C 315.015625 393.699219 313.074219 390.738281 320.523438 402.101562 Z M 320.523438 402.101562 "/><path style=" stroke:none;fill-rule:nonzero;fill:#a4a9cb;fill-opacity:1;" d="M 314.367188 392.710938 L 175.394531 394.953125 L 179.296875 388.992188 L 311.933594 388.992188 Z M 314.367188 392.710938 "/><path style=" stroke:none;fill-rule:nonzero;fill:#a4a9cb;fill-opacity:1;" d="M 170.707031 402.101562 L 320.523438 402.101562 L 320.523438 403.292969 L 170.707031 403.292969 Z M 170.707031 402.101562 "/><path style=" stroke:none;fill-rule:nonzero;fill:#dbddf4;fill-opacity:1;" d="M 320.523438 420.265625 L 170.707031 420.265625 C 176.375 411.617188 174.351562 414.703125 179.296875 407.152344 L 311.933594 407.152344 C 315.015625 411.859375 313.074219 408.898438 320.523438 420.265625 Z M 320.523438 420.265625 "/><path style=" stroke:none;fill-rule:nonzero;fill:#a4a9cb;fill-opacity:1;" d="M 314.367188 410.871094 L 175.394531 413.113281 L 179.296875 407.152344 L 311.933594 407.152344 Z M 314.367188 410.871094 "/><path style=" stroke:none;fill-rule:nonzero;fill:#a4a9cb;fill-opacity:1;" d="M 170.707031 420.265625 L 320.523438 420.265625 L 320.523438 421.453125 L 170.707031 421.453125 Z M 170.707031 420.265625 "/><path style=" stroke:none;fill-rule:nonzero;fill:#dbddf4;fill-opacity:1;" d="M 320.523438 438.421875 L 170.707031 438.421875 C 176.363281 429.796875 174.378906 432.824219 179.296875 425.3125 L 311.933594 425.3125 C 315.007812 429.996094 313.136719 427.144531 320.523438 438.421875 Z M 320.523438 438.421875 "/><path style=" stroke:none;fill-rule:nonzero;fill:#a4a9cb;fill-opacity:1;" d="M 314.371094 429.03125 L 175.394531 431.273438 L 179.296875 425.3125 L 311.933594 425.3125 Z M 314.371094 429.03125 "/><path style=" stroke:none;fill-rule:nonzero;fill:#a4a9cb;fill-opacity:1;" d="M 170.707031 438.425781 L 320.523438 438.425781 L 320.523438 439.613281 L 170.707031 439.613281 Z M 170.707031 438.425781 "/><g clip-rule="nonzero" clip-path="url(#d2cb8311c4)"><path style=" stroke:none;fill-rule:nonzero;fill:#9298bd;fill-opacity:1;" d="M 626.226562 356.15625 L 800.355469 356.15625 L 800.355469 455.589844 L 626.226562 455.589844 Z M 626.226562 356.15625 "/></g><path style=" stroke:none;fill-rule:nonzero;fill:#c8cbee;fill-opacity:1;" d="M 628.65625 358.59375 L 797.921875 358.59375 L 797.921875 453.152344 L 628.65625 453.152344 Z M 628.65625 358.59375 "/><g clip-rule="nonzero" clip-path="url(#80be53580b)"><path style=" stroke:none;fill-rule:nonzero;fill:#f3f3fc;fill-opacity:1;" d="M 628.65625 358.59375 L 626.226562 356.15625 L 800.355469 356.15625 L 797.921875 358.59375 Z M 628.65625 358.59375 "/></g><g clip-rule="nonzero" clip-path="url(#c34ed3c089)"><path style=" stroke:none;fill-rule:nonzero;fill:#666d97;fill-opacity:1;" d="M 797.921875 453.152344 L 800.355469 455.589844 L 626.226562 455.589844 L 628.65625 453.152344 Z M 797.921875 453.152344 "/></g><path style=" stroke:none;fill-rule:nonzero;fill:#e6e7f7;fill-opacity:1;" d="M 628.65625 453.152344 L 638.382812 443.40625 L 788.199219 368.34375 L 797.921875 358.59375 L 628.65625 358.59375 Z M 628.65625 453.152344 "/><path style=" stroke:none;fill-rule:nonzero;fill:#666d97;fill-opacity:1;" d="M 788.199219 368.34375 L 788.199219 443.40625 L 638.382812 443.40625 L 638.382812 368.34375 Z M 788.199219 368.34375 "/><path style=" stroke:none;fill-rule:nonzero;fill:#3e425c;fill-opacity:1;" d="M 646.972656 368.34375 L 779.609375 368.34375 L 779.609375 443.40625 L 646.972656 443.40625 Z M 646.972656 368.34375 "/><path style=" stroke:none;fill-rule:nonzero;fill:#dbddf4;fill-opacity:1;" d="M 788.199219 385.1875 L 638.382812 385.1875 C 646.203125 373.257812 640.535156 381.90625 646.972656 372.082031 L 779.609375 372.082031 C 784.101562 378.929688 780.371094 373.246094 788.199219 385.1875 Z M 788.199219 385.1875 "/><path style=" stroke:none;fill-rule:nonzero;fill:#a4a9cb;fill-opacity:1;" d="M 782.046875 375.800781 L 643.066406 378.042969 L 646.972656 372.082031 L 779.609375 372.082031 Z M 782.046875 375.800781 "/><path style=" stroke:none;fill-rule:nonzero;fill:#a4a9cb;fill-opacity:1;" d="M 638.382812 385.1875 L 788.199219 385.1875 L 788.199219 386.378906 L 638.382812 386.378906 Z M 638.382812 385.1875 "/><path style=" stroke:none;fill-rule:nonzero;fill:#dbddf4;fill-opacity:1;" d="M 788.199219 403.347656 L 638.382812 403.347656 C 644.050781 394.703125 642.027344 397.789062 646.972656 390.238281 L 779.609375 390.238281 C 782.691406 394.945312 780.75 391.984375 788.199219 403.347656 Z M 788.199219 403.347656 "/><path style=" stroke:none;fill-rule:nonzero;fill:#a4a9cb;fill-opacity:1;" d="M 782.042969 393.957031 L 643.066406 396.199219 L 646.972656 390.238281 L 779.609375 390.238281 Z M 782.042969 393.957031 "/><path style=" stroke:none;fill-rule:nonzero;fill:#a4a9cb;fill-opacity:1;" d="M 638.382812 403.347656 L 788.199219 403.347656 L 788.199219 404.539062 L 638.382812 404.539062 Z M 638.382812 403.347656 "/><path style=" stroke:none;fill-rule:nonzero;fill:#dbddf4;fill-opacity:1;" d="M 788.199219 421.511719 L 638.382812 421.511719 C 644.050781 412.863281 642.027344 415.949219 646.972656 408.398438 L 779.609375 408.398438 C 782.691406 413.105469 780.75 410.144531 788.199219 421.511719 Z M 788.199219 421.511719 "/><path style=" stroke:none;fill-rule:nonzero;fill:#a4a9cb;fill-opacity:1;" d="M 782.042969 412.117188 L 643.066406 414.359375 L 646.972656 408.398438 L 779.609375 408.398438 Z M 782.042969 412.117188 "/><path style=" stroke:none;fill-rule:nonzero;fill:#a4a9cb;fill-opacity:1;" d="M 638.382812 421.511719 L 788.199219 421.511719 L 788.199219 422.699219 L 638.382812 422.699219 Z M 638.382812 421.511719 "/><path style=" stroke:none;fill-rule:nonzero;fill:#dbddf4;fill-opacity:1;" d="M 788.199219 439.667969 L 638.382812 439.667969 C 644.039062 431.042969 642.054688 434.070312 646.972656 426.558594 L 779.609375 426.558594 C 782.683594 431.246094 780.808594 428.390625 788.199219 439.667969 Z M 788.199219 439.667969 "/><path style=" stroke:none;fill-rule:nonzero;fill:#a4a9cb;fill-opacity:1;" d="M 782.046875 430.277344 L 643.066406 432.519531 L 646.972656 426.558594 L 779.609375 426.558594 Z M 782.046875 430.277344 "/><path style=" stroke:none;fill-rule:nonzero;fill:#a4a9cb;fill-opacity:1;" d="M 638.382812 439.671875 L 788.199219 439.671875 L 788.199219 440.859375 L 638.382812 440.859375 Z M 638.382812 439.671875 "/><g clip-rule="nonzero" clip-path="url(#772e322fa6)"><path style=" stroke:none;fill-rule:nonzero;fill:#9298bd;fill-opacity:1;" d="M 478.566406 356.15625 L 652.695312 356.15625 L 652.695312 455.589844 L 478.566406 455.589844 Z M 478.566406 356.15625 "/></g><path style=" stroke:none;fill-rule:nonzero;fill:#c8cbee;fill-opacity:1;" d="M 481 358.59375 L 650.265625 358.59375 L 650.265625 453.152344 L 481 453.152344 Z M 481 358.59375 "/><g clip-rule="nonzero" clip-path="url(#c1bfcde0cc)"><path style=" stroke:none;fill-rule:nonzero;fill:#f3f3fc;fill-opacity:1;" d="M 481 358.59375 L 478.566406 356.15625 L 652.695312 356.15625 L 650.265625 358.59375 Z M 481 358.59375 "/></g><g clip-rule="nonzero" clip-path="url(#e0a35f1075)"><path style=" stroke:none;fill-rule:nonzero;fill:#666d97;fill-opacity:1;" d="M 650.265625 453.152344 L 652.695312 455.589844 L 478.566406 455.589844 L 481 453.152344 Z M 650.265625 453.152344 "/></g><path style=" stroke:none;fill-rule:nonzero;fill:#e6e7f7;fill-opacity:1;" d="M 481 453.152344 L 490.722656 443.40625 L 640.539062 368.34375 L 650.265625 358.59375 L 481 358.59375 Z M 481 453.152344 "/><path style=" stroke:none;fill-rule:nonzero;fill:#666d97;fill-opacity:1;" d="M 640.539062 368.34375 L 640.539062 443.40625 L 490.722656 443.40625 L 490.722656 368.34375 Z M 640.539062 368.34375 "/><path style=" stroke:none;fill-rule:nonzero;fill:#3e425c;fill-opacity:1;" d="M 499.3125 368.34375 L 631.949219 368.34375 L 631.949219 443.40625 L 499.3125 443.40625 Z M 499.3125 368.34375 "/><path style=" stroke:none;fill-rule:nonzero;fill:#dbddf4;fill-opacity:1;" d="M 640.539062 385.1875 L 490.722656 385.1875 C 498.542969 373.257812 492.878906 381.90625 499.3125 372.082031 L 631.949219 372.082031 C 636.441406 378.929688 632.710938 373.246094 640.539062 385.1875 Z M 640.539062 385.1875 "/><path style=" stroke:none;fill-rule:nonzero;fill:#a4a9cb;fill-opacity:1;" d="M 634.390625 375.800781 L 495.410156 378.042969 L 499.3125 372.082031 L 631.949219 372.082031 Z M 634.390625 375.800781 "/><path style=" stroke:none;fill-rule:nonzero;fill:#a4a9cb;fill-opacity:1;" d="M 490.722656 385.1875 L 640.539062 385.1875 L 640.539062 386.378906 L 490.722656 386.378906 Z M 490.722656 385.1875 "/><path style=" stroke:none;fill-rule:nonzero;fill:#dbddf4;fill-opacity:1;" d="M 640.539062 403.347656 L 490.722656 403.347656 C 496.390625 394.703125 494.367188 397.789062 499.3125 390.238281 L 631.949219 390.238281 C 635.03125 394.945312 633.09375 391.984375 640.539062 403.347656 Z M 640.539062 403.347656 "/><path style=" stroke:none;fill-rule:nonzero;fill:#a4a9cb;fill-opacity:1;" d="M 634.386719 393.957031 L 495.410156 396.199219 L 499.3125 390.238281 L 631.949219 390.238281 Z M 634.386719 393.957031 "/><path style=" stroke:none;fill-rule:nonzero;fill:#a4a9cb;fill-opacity:1;" d="M 490.722656 403.347656 L 640.539062 403.347656 L 640.539062 404.539062 L 490.722656 404.539062 Z M 490.722656 403.347656 "/><path style=" stroke:none;fill-rule:nonzero;fill:#dbddf4;fill-opacity:1;" d="M 640.539062 421.511719 L 490.722656 421.511719 C 496.390625 412.863281 494.367188 415.949219 499.3125 408.398438 L 631.949219 408.398438 C 635.03125 413.105469 633.09375 410.144531 640.539062 421.511719 Z M 640.539062 421.511719 "/><path style=" stroke:none;fill-rule:nonzero;fill:#a4a9cb;fill-opacity:1;" d="M 634.386719 412.117188 L 495.410156 414.359375 L 499.3125 408.398438 L 631.949219 408.398438 Z M 634.386719 412.117188 "/><path style=" stroke:none;fill-rule:nonzero;fill:#a4a9cb;fill-opacity:1;" d="M 490.722656 421.511719 L 640.539062 421.511719 L 640.539062 422.699219 L 490.722656 422.699219 Z M 490.722656 421.511719 "/><path style=" stroke:none;fill-rule:nonzero;fill:#dbddf4;fill-opacity:1;" d="M 640.539062 439.667969 L 490.722656 439.667969 C 496.378906 431.042969 494.394531 434.070312 499.3125 426.558594 L 631.949219 426.558594 C 635.023438 431.246094 633.152344 428.390625 640.539062 439.667969 Z M 640.539062 439.667969 "/><path style=" stroke:none;fill-rule:nonzero;fill:#a4a9cb;fill-opacity:1;" d="M 634.390625 430.277344 L 495.410156 432.519531 L 499.3125 426.558594 L 631.949219 426.558594 Z M 634.390625 430.277344 "/><path style=" stroke:none;fill-rule:nonzero;fill:#a4a9cb;fill-opacity:1;" d="M 490.722656 439.671875 L 640.539062 439.671875 L 640.539062 440.859375 L 490.722656 440.859375 Z M 490.722656 439.671875 "/><g clip-rule="nonzero" clip-path="url(#e1f5b8ae36)"><path style=" stroke:none;fill-rule:nonzero;fill:#9298bd;fill-opacity:1;" d="M 316.503906 354.910156 L 490.632812 354.910156 L 490.632812 454.34375 L 316.503906 454.34375 Z M 316.503906 354.910156 "/></g><path style=" stroke:none;fill-rule:nonzero;fill:#c8cbee;fill-opacity:1;" d="M 318.9375 357.347656 L 488.203125 357.347656 L 488.203125 451.90625 L 318.9375 451.90625 Z M 318.9375 357.347656 "/><g clip-rule="nonzero" clip-path="url(#94082dbf20)"><path style=" stroke:none;fill-rule:nonzero;fill:#f3f3fc;fill-opacity:1;" d="M 318.9375 357.347656 L 316.503906 354.910156 L 490.632812 354.910156 L 488.203125 357.347656 Z M 318.9375 357.347656 "/></g><g clip-rule="nonzero" clip-path="url(#ff22b8317a)"><path style=" stroke:none;fill-rule:nonzero;fill:#666d97;fill-opacity:1;" d="M 488.203125 451.90625 L 490.632812 454.34375 L 316.503906 454.34375 L 318.9375 451.90625 Z M 488.203125 451.90625 "/></g><path style=" stroke:none;fill-rule:nonzero;fill:#e6e7f7;fill-opacity:1;" d="M 318.9375 451.90625 L 328.660156 442.160156 L 478.476562 367.097656 L 488.203125 357.347656 L 318.9375 357.347656 Z M 318.9375 451.90625 "/><path style=" stroke:none;fill-rule:nonzero;fill:#666d97;fill-opacity:1;" d="M 478.476562 367.097656 L 478.476562 442.160156 L 328.660156 442.160156 L 328.660156 367.097656 Z M 478.476562 367.097656 "/><path style=" stroke:none;fill-rule:nonzero;fill:#3e425c;fill-opacity:1;" d="M 337.25 367.097656 L 469.886719 367.097656 L 469.886719 442.160156 L 337.25 442.160156 Z M 337.25 367.097656 "/><path style=" stroke:none;fill-rule:nonzero;fill:#dbddf4;fill-opacity:1;" d="M 478.476562 383.941406 L 328.660156 383.941406 C 336.480469 372.011719 330.816406 380.660156 337.25 370.835938 L 469.886719 370.835938 C 474.378906 377.683594 470.648438 372 478.476562 383.941406 Z M 478.476562 383.941406 "/><path style=" stroke:none;fill-rule:nonzero;fill:#a4a9cb;fill-opacity:1;" d="M 472.328125 374.554688 L 333.347656 376.796875 L 337.25 370.835938 L 469.886719 370.835938 Z M 472.328125 374.554688 "/><path style=" stroke:none;fill-rule:nonzero;fill:#a4a9cb;fill-opacity:1;" d="M 328.660156 383.941406 L 478.476562 383.941406 L 478.476562 385.128906 L 328.660156 385.128906 Z M 328.660156 383.941406 "/><path style=" stroke:none;fill-rule:nonzero;fill:#dbddf4;fill-opacity:1;" d="M 478.476562 402.101562 L 328.660156 402.101562 C 334.328125 393.457031 332.304688 396.542969 337.25 388.992188 L 469.886719 388.992188 C 472.96875 393.699219 471.03125 390.738281 478.476562 402.101562 Z M 478.476562 402.101562 "/><path style=" stroke:none;fill-rule:nonzero;fill:#a4a9cb;fill-opacity:1;" d="M 472.324219 392.710938 L 333.347656 394.953125 L 337.25 388.992188 L 469.886719 388.992188 Z M 472.324219 392.710938 "/><path style=" stroke:none;fill-rule:nonzero;fill:#a4a9cb;fill-opacity:1;" d="M 328.660156 402.101562 L 478.476562 402.101562 L 478.476562 403.292969 L 328.660156 403.292969 Z M 328.660156 402.101562 "/><path style=" stroke:none;fill-rule:nonzero;fill:#dbddf4;fill-opacity:1;" d="M 478.476562 420.265625 L 328.660156 420.265625 C 334.328125 411.617188 332.304688 414.703125 337.25 407.152344 L 469.886719 407.152344 C 472.96875 411.859375 471.03125 408.898438 478.476562 420.265625 Z M 478.476562 420.265625 "/><path style=" stroke:none;fill-rule:nonzero;fill:#a4a9cb;fill-opacity:1;" d="M 472.324219 410.871094 L 333.347656 413.113281 L 337.25 407.152344 L 469.886719 407.152344 Z M 472.324219 410.871094 "/><path style=" stroke:none;fill-rule:nonzero;fill:#a4a9cb;fill-opacity:1;" d="M 328.660156 420.265625 L 478.476562 420.265625 L 478.476562 421.453125 L 328.660156 421.453125 Z M 328.660156 420.265625 "/><path style=" stroke:none;fill-rule:nonzero;fill:#dbddf4;fill-opacity:1;" d="M 478.476562 438.421875 L 328.660156 438.421875 C 334.316406 429.796875 332.332031 432.824219 337.25 425.3125 L 469.886719 425.3125 C 472.960938 429.996094 471.089844 427.144531 478.476562 438.421875 Z M 478.476562 438.421875 "/><path style=" stroke:none;fill-rule:nonzero;fill:#a4a9cb;fill-opacity:1;" d="M 472.328125 429.03125 L 333.347656 431.273438 L 337.25 425.3125 L 469.886719 425.3125 Z M 472.328125 429.03125 "/><path style=" stroke:none;fill-rule:nonzero;fill:#a4a9cb;fill-opacity:1;" d="M 328.660156 438.425781 L 478.476562 438.425781 L 478.476562 439.613281 L 328.660156 439.613281 Z M 328.660156 438.425781 "/><g clip-rule="nonzero" clip-path="url(#8ef4d426e9)"><path style=" stroke:none;fill-rule:nonzero;fill:#9298bd;fill-opacity:1;" d="M 780.292969 356.15625 L 954.421875 356.15625 L 954.421875 455.589844 L 780.292969 455.589844 Z M 780.292969 356.15625 "/></g><path style=" stroke:none;fill-rule:nonzero;fill:#c8cbee;fill-opacity:1;" d="M 782.722656 358.59375 L 951.988281 358.59375 L 951.988281 453.152344 L 782.722656 453.152344 Z M 782.722656 358.59375 "/><g clip-rule="nonzero" clip-path="url(#a1e3fdbd6e)"><path style=" stroke:none;fill-rule:nonzero;fill:#f3f3fc;fill-opacity:1;" d="M 782.722656 358.59375 L 780.292969 356.15625 L 954.421875 356.15625 L 951.988281 358.59375 Z M 782.722656 358.59375 "/></g><g clip-rule="nonzero" clip-path="url(#8748920538)"><path style=" stroke:none;fill-rule:nonzero;fill:#666d97;fill-opacity:1;" d="M 951.988281 453.152344 L 954.421875 455.589844 L 780.292969 455.589844 L 782.722656 453.152344 Z M 951.988281 453.152344 "/></g><path style=" stroke:none;fill-rule:nonzero;fill:#e6e7f7;fill-opacity:1;" d="M 782.722656 453.152344 L 792.449219 443.40625 L 942.265625 368.34375 L 951.988281 358.59375 L 782.722656 358.59375 Z M 782.722656 453.152344 "/><path style=" stroke:none;fill-rule:nonzero;fill:#666d97;fill-opacity:1;" d="M 942.265625 368.34375 L 942.265625 443.40625 L 792.449219 443.40625 L 792.449219 368.34375 Z M 942.265625 368.34375 "/><path style=" stroke:none;fill-rule:nonzero;fill:#3e425c;fill-opacity:1;" d="M 801.039062 368.34375 L 933.675781 368.34375 L 933.675781 443.40625 L 801.039062 443.40625 Z M 801.039062 368.34375 "/><path style=" stroke:none;fill-rule:nonzero;fill:#dbddf4;fill-opacity:1;" d="M 942.265625 385.1875 L 792.449219 385.1875 C 800.269531 373.257812 794.605469 381.90625 801.039062 372.082031 L 933.675781 372.082031 C 938.167969 378.929688 934.4375 373.246094 942.265625 385.1875 Z M 942.265625 385.1875 "/><path style=" stroke:none;fill-rule:nonzero;fill:#a4a9cb;fill-opacity:1;" d="M 936.113281 375.800781 L 797.136719 378.042969 L 801.039062 372.082031 L 933.675781 372.082031 Z M 936.113281 375.800781 "/><path style=" stroke:none;fill-rule:nonzero;fill:#a4a9cb;fill-opacity:1;" d="M 792.449219 385.1875 L 942.265625 385.1875 L 942.265625 386.378906 L 792.449219 386.378906 Z M 792.449219 385.1875 "/><path style=" stroke:none;fill-rule:nonzero;fill:#dbddf4;fill-opacity:1;" d="M 942.265625 403.347656 L 792.449219 403.347656 C 798.117188 394.703125 796.09375 397.789062 801.039062 390.238281 L 933.675781 390.238281 C 936.757812 394.945312 934.816406 391.984375 942.265625 403.347656 Z M 942.265625 403.347656 "/><path style=" stroke:none;fill-rule:nonzero;fill:#a4a9cb;fill-opacity:1;" d="M 936.109375 393.957031 L 797.136719 396.199219 L 801.039062 390.238281 L 933.675781 390.238281 Z M 936.109375 393.957031 "/><path style=" stroke:none;fill-rule:nonzero;fill:#a4a9cb;fill-opacity:1;" d="M 792.449219 403.347656 L 942.265625 403.347656 L 942.265625 404.539062 L 792.449219 404.539062 Z M 792.449219 403.347656 "/><path style=" stroke:none;fill-rule:nonzero;fill:#dbddf4;fill-opacity:1;" d="M 942.265625 421.511719 L 792.449219 421.511719 C 798.117188 412.863281 796.09375 415.949219 801.039062 408.398438 L 933.675781 408.398438 C 936.757812 413.105469 934.816406 410.144531 942.265625 421.511719 Z M 942.265625 421.511719 "/><path style=" stroke:none;fill-rule:nonzero;fill:#a4a9cb;fill-opacity:1;" d="M 936.109375 412.117188 L 797.136719 414.359375 L 801.039062 408.398438 L 933.675781 408.398438 Z M 936.109375 412.117188 "/><path style=" stroke:none;fill-rule:nonzero;fill:#a4a9cb;fill-opacity:1;" d="M 792.449219 421.511719 L 942.265625 421.511719 L 942.265625 422.699219 L 792.449219 422.699219 Z M 792.449219 421.511719 "/><path style=" stroke:none;fill-rule:nonzero;fill:#dbddf4;fill-opacity:1;" d="M 942.265625 439.667969 L 792.449219 439.667969 C 798.105469 431.042969 796.121094 434.070312 801.039062 426.558594 L 933.675781 426.558594 C 936.75 431.246094 934.878906 428.390625 942.265625 439.667969 Z M 942.265625 439.667969 "/><path style=" stroke:none;fill-rule:nonzero;fill:#a4a9cb;fill-opacity:1;" d="M 936.113281 430.277344 L 797.136719 432.519531 L 801.039062 426.558594 L 933.675781 426.558594 Z M 936.113281 430.277344 "/><path style=" stroke:none;fill-rule:nonzero;fill:#a4a9cb;fill-opacity:1;" d="M 792.449219 439.671875 L 942.265625 439.671875 L 942.265625 440.859375 L 792.449219 440.859375 Z M 792.449219 439.671875 "/><g clip-rule="nonzero" clip-path="url(#5cad8c8254)"><path style=" stroke:none;fill-rule:nonzero;fill:#9298bd;fill-opacity:1;" d="M 943.078125 356.15625 L 1117.207031 356.15625 L 1117.207031 455.589844 L 943.078125 455.589844 Z M 943.078125 356.15625 "/></g><path style=" stroke:none;fill-rule:nonzero;fill:#c8cbee;fill-opacity:1;" d="M 945.511719 358.59375 L 1114.777344 358.59375 L 1114.777344 453.152344 L 945.511719 453.152344 Z M 945.511719 358.59375 "/><g clip-rule="nonzero" clip-path="url(#a1b4fc82cd)"><path style=" stroke:none;fill-rule:nonzero;fill:#f3f3fc;fill-opacity:1;" d="M 945.511719 358.59375 L 943.078125 356.15625 L 1117.207031 356.15625 L 1114.777344 358.59375 Z M 945.511719 358.59375 "/></g><g clip-rule="nonzero" clip-path="url(#84f1de9fb3)"><path style=" stroke:none;fill-rule:nonzero;fill:#666d97;fill-opacity:1;" d="M 1114.777344 453.152344 L 1117.207031 455.589844 L 943.078125 455.589844 L 945.511719 453.152344 Z M 1114.777344 453.152344 "/></g><path style=" stroke:none;fill-rule:nonzero;fill:#e6e7f7;fill-opacity:1;" d="M 945.511719 453.152344 L 955.234375 443.40625 L 1105.050781 368.34375 L 1114.777344 358.59375 L 945.511719 358.59375 Z M 945.511719 453.152344 "/><path style=" stroke:none;fill-rule:nonzero;fill:#666d97;fill-opacity:1;" d="M 1105.054688 368.34375 L 1105.054688 443.40625 L 955.234375 443.40625 L 955.234375 368.34375 Z M 1105.054688 368.34375 "/><path style=" stroke:none;fill-rule:nonzero;fill:#3e425c;fill-opacity:1;" d="M 963.824219 368.34375 L 1096.464844 368.34375 L 1096.464844 443.40625 L 963.824219 443.40625 Z M 963.824219 368.34375 "/><path style=" stroke:none;fill-rule:nonzero;fill:#dbddf4;fill-opacity:1;" d="M 1105.050781 385.1875 L 955.234375 385.1875 C 963.058594 373.257812 957.390625 381.90625 963.828125 372.082031 L 1096.460938 372.082031 C 1100.957031 378.929688 1097.226562 373.246094 1105.050781 385.1875 Z M 1105.050781 385.1875 "/><path style=" stroke:none;fill-rule:nonzero;fill:#a4a9cb;fill-opacity:1;" d="M 1098.902344 375.800781 L 959.921875 378.042969 L 963.828125 372.082031 L 1096.460938 372.082031 Z M 1098.902344 375.800781 "/><path style=" stroke:none;fill-rule:nonzero;fill:#a4a9cb;fill-opacity:1;" d="M 955.234375 385.1875 L 1105.050781 385.1875 L 1105.050781 386.378906 L 955.234375 386.378906 Z M 955.234375 385.1875 "/><path style=" stroke:none;fill-rule:nonzero;fill:#dbddf4;fill-opacity:1;" d="M 1105.050781 403.347656 L 955.234375 403.347656 C 960.902344 394.703125 958.878906 397.789062 963.828125 390.238281 L 1096.460938 390.238281 C 1099.542969 394.945312 1097.605469 391.984375 1105.050781 403.347656 Z M 1105.050781 403.347656 "/><path style=" stroke:none;fill-rule:nonzero;fill:#a4a9cb;fill-opacity:1;" d="M 1098.898438 393.957031 L 959.921875 396.199219 L 963.828125 390.238281 L 1096.460938 390.238281 Z M 1098.898438 393.957031 "/><path style=" stroke:none;fill-rule:nonzero;fill:#a4a9cb;fill-opacity:1;" d="M 955.234375 403.347656 L 1105.050781 403.347656 L 1105.050781 404.539062 L 955.234375 404.539062 Z M 955.234375 403.347656 "/><path style=" stroke:none;fill-rule:nonzero;fill:#dbddf4;fill-opacity:1;" d="M 1105.050781 421.511719 L 955.234375 421.511719 C 960.902344 412.863281 958.878906 415.949219 963.828125 408.398438 L 1096.460938 408.398438 C 1099.542969 413.105469 1097.605469 410.144531 1105.050781 421.511719 Z M 1105.050781 421.511719 "/><path style=" stroke:none;fill-rule:nonzero;fill:#a4a9cb;fill-opacity:1;" d="M 1098.898438 412.117188 L 959.921875 414.359375 L 963.828125 408.398438 L 1096.460938 408.398438 Z M 1098.898438 412.117188 "/><path style=" stroke:none;fill-rule:nonzero;fill:#a4a9cb;fill-opacity:1;" d="M 955.234375 421.511719 L 1105.050781 421.511719 L 1105.050781 422.699219 L 955.234375 422.699219 Z M 955.234375 421.511719 "/><path style=" stroke:none;fill-rule:nonzero;fill:#dbddf4;fill-opacity:1;" d="M 1105.050781 439.667969 L 955.234375 439.667969 C 960.890625 431.042969 958.910156 434.070312 963.828125 426.558594 L 1096.460938 426.558594 C 1099.535156 431.246094 1097.664062 428.390625 1105.050781 439.667969 Z M 1105.050781 439.667969 "/><path style=" stroke:none;fill-rule:nonzero;fill:#a4a9cb;fill-opacity:1;" d="M 1098.902344 430.277344 L 959.921875 432.519531 L 963.828125 426.558594 L 1096.460938 426.558594 Z M 1098.902344 430.277344 "/><path style=" stroke:none;fill-rule:nonzero;fill:#a4a9cb;fill-opacity:1;" d="M 955.234375 439.671875 L 1105.050781 439.671875 L 1105.050781 440.859375 L 955.234375 440.859375 Z M 955.234375 439.671875 "/><g clip-rule="nonzero" clip-path="url(#51ee473c7b)"><path style=" stroke:none;fill-rule:nonzero;fill:#9298bd;fill-opacity:1;" d="M 1104.464844 356.15625 L 1278.59375 356.15625 L 1278.59375 455.589844 L 1104.464844 455.589844 Z M 1104.464844 356.15625 "/></g><path style=" stroke:none;fill-rule:nonzero;fill:#c8cbee;fill-opacity:1;" d="M 1106.894531 358.59375 L 1276.164062 358.59375 L 1276.164062 453.152344 L 1106.894531 453.152344 Z M 1106.894531 358.59375 "/><g clip-rule="nonzero" clip-path="url(#d076289339)"><path style=" stroke:none;fill-rule:nonzero;fill:#f3f3fc;fill-opacity:1;" d="M 1106.894531 358.59375 L 1104.464844 356.15625 L 1278.59375 356.15625 L 1276.164062 358.59375 Z M 1106.894531 358.59375 "/></g><g clip-rule="nonzero" clip-path="url(#9a8a012efe)"><path style=" stroke:none;fill-rule:nonzero;fill:#666d97;fill-opacity:1;" d="M 1276.164062 453.152344 L 1278.59375 455.589844 L 1104.464844 455.589844 L 1106.894531 453.152344 Z M 1276.164062 453.152344 "/></g><path style=" stroke:none;fill-rule:nonzero;fill:#e6e7f7;fill-opacity:1;" d="M 1106.894531 453.152344 L 1116.621094 443.40625 L 1266.4375 368.34375 L 1276.164062 358.59375 L 1106.894531 358.59375 Z M 1106.894531 453.152344 "/><path style=" stroke:none;fill-rule:nonzero;fill:#666d97;fill-opacity:1;" d="M 1266.4375 368.34375 L 1266.4375 443.40625 L 1116.621094 443.40625 L 1116.621094 368.34375 Z M 1266.4375 368.34375 "/><path style=" stroke:none;fill-rule:nonzero;fill:#3e425c;fill-opacity:1;" d="M 1125.210938 368.34375 L 1257.847656 368.34375 L 1257.847656 443.40625 L 1125.210938 443.40625 Z M 1125.210938 368.34375 "/><path style=" stroke:none;fill-rule:nonzero;fill:#dbddf4;fill-opacity:1;" d="M 1266.4375 385.1875 L 1116.621094 385.1875 C 1124.441406 373.257812 1118.777344 381.90625 1125.210938 372.082031 L 1257.847656 372.082031 C 1262.339844 378.929688 1258.609375 373.246094 1266.4375 385.1875 Z M 1266.4375 385.1875 "/><path style=" stroke:none;fill-rule:nonzero;fill:#a4a9cb;fill-opacity:1;" d="M 1260.289062 375.800781 L 1121.308594 378.042969 L 1125.210938 372.082031 L 1257.847656 372.082031 Z M 1260.289062 375.800781 "/><path style=" stroke:none;fill-rule:nonzero;fill:#a4a9cb;fill-opacity:1;" d="M 1116.621094 385.1875 L 1266.4375 385.1875 L 1266.4375 386.378906 L 1116.621094 386.378906 Z M 1116.621094 385.1875 "/><path style=" stroke:none;fill-rule:nonzero;fill:#dbddf4;fill-opacity:1;" d="M 1266.4375 403.347656 L 1116.621094 403.347656 C 1122.289062 394.703125 1120.265625 397.789062 1125.210938 390.238281 L 1257.847656 390.238281 C 1260.929688 394.945312 1258.992188 391.984375 1266.4375 403.347656 Z M 1266.4375 403.347656 "/><path style=" stroke:none;fill-rule:nonzero;fill:#a4a9cb;fill-opacity:1;" d="M 1260.28125 393.957031 L 1121.308594 396.199219 L 1125.210938 390.238281 L 1257.847656 390.238281 Z M 1260.28125 393.957031 "/><path style=" stroke:none;fill-rule:nonzero;fill:#a4a9cb;fill-opacity:1;" d="M 1116.621094 403.347656 L 1266.4375 403.347656 L 1266.4375 404.539062 L 1116.621094 404.539062 Z M 1116.621094 403.347656 "/><path style=" stroke:none;fill-rule:nonzero;fill:#dbddf4;fill-opacity:1;" d="M 1266.4375 421.511719 L 1116.621094 421.511719 C 1122.289062 412.863281 1120.265625 415.949219 1125.210938 408.398438 L 1257.847656 408.398438 C 1260.929688 413.105469 1258.992188 410.144531 1266.4375 421.511719 Z M 1266.4375 421.511719 "/><path style=" stroke:none;fill-rule:nonzero;fill:#a4a9cb;fill-opacity:1;" d="M 1260.28125 412.117188 L 1121.308594 414.359375 L 1125.210938 408.398438 L 1257.847656 408.398438 Z M 1260.28125 412.117188 "/><path style=" stroke:none;fill-rule:nonzero;fill:#a4a9cb;fill-opacity:1;" d="M 1116.621094 421.511719 L 1266.4375 421.511719 L 1266.4375 422.699219 L 1116.621094 422.699219 Z M 1116.621094 421.511719 "/><path style=" stroke:none;fill-rule:nonzero;fill:#dbddf4;fill-opacity:1;" d="M 1266.4375 439.667969 L 1116.621094 439.667969 C 1122.277344 431.042969 1120.292969 434.070312 1125.210938 426.558594 L 1257.847656 426.558594 C 1260.921875 431.246094 1259.050781 428.390625 1266.4375 439.667969 Z M 1266.4375 439.667969 "/><path style=" stroke:none;fill-rule:nonzero;fill:#a4a9cb;fill-opacity:1;" d="M 1260.289062 430.277344 L 1121.308594 432.519531 L 1125.210938 426.558594 L 1257.847656 426.558594 Z M 1260.289062 430.277344 "/><path style=" stroke:none;fill-rule:nonzero;fill:#a4a9cb;fill-opacity:1;" d="M 1116.621094 439.671875 L 1266.4375 439.671875 L 1266.4375 440.859375 L 1116.621094 440.859375 Z M 1116.621094 439.671875 "/><g clip-rule="nonzero" clip-path="url(#5ff264d4e0)"><path style=" stroke:none;fill-rule:nonzero;fill:#9298bd;fill-opacity:1;" d="M 1265.855469 356.15625 L 1439.984375 356.15625 L 1439.984375 455.589844 L 1265.855469 455.589844 Z M 1265.855469 356.15625 "/></g><path style=" stroke:none;fill-rule:nonzero;fill:#c8cbee;fill-opacity:1;" d="M 1268.289062 358.59375 L 1437.554688 358.59375 L 1437.554688 453.152344 L 1268.289062 453.152344 Z M 1268.289062 358.59375 "/><g clip-rule="nonzero" clip-path="url(#7027efa940)"><path style=" stroke:none;fill-rule:nonzero;fill:#f3f3fc;fill-opacity:1;" d="M 1268.289062 358.59375 L 1265.855469 356.15625 L 1439.984375 356.15625 L 1437.554688 358.59375 Z M 1268.289062 358.59375 "/></g><g clip-rule="nonzero" clip-path="url(#a28a0403b0)"><path style=" stroke:none;fill-rule:nonzero;fill:#666d97;fill-opacity:1;" d="M 1437.554688 453.152344 L 1439.984375 455.589844 L 1265.855469 455.589844 L 1268.289062 453.152344 Z M 1437.554688 453.152344 "/></g><path style=" stroke:none;fill-rule:nonzero;fill:#e6e7f7;fill-opacity:1;" d="M 1268.289062 453.152344 L 1278.011719 443.40625 L 1427.828125 368.34375 L 1437.554688 358.59375 L 1268.289062 358.59375 Z M 1268.289062 453.152344 "/><path style=" stroke:none;fill-rule:nonzero;fill:#666d97;fill-opacity:1;" d="M 1427.832031 368.34375 L 1427.832031 443.40625 L 1278.011719 443.40625 L 1278.011719 368.34375 Z M 1427.832031 368.34375 "/><path style=" stroke:none;fill-rule:nonzero;fill:#3e425c;fill-opacity:1;" d="M 1286.601562 368.34375 L 1419.242188 368.34375 L 1419.242188 443.40625 L 1286.601562 443.40625 Z M 1286.601562 368.34375 "/><path style=" stroke:none;fill-rule:nonzero;fill:#dbddf4;fill-opacity:1;" d="M 1427.828125 385.1875 L 1278.011719 385.1875 C 1285.835938 373.257812 1280.167969 381.90625 1286.605469 372.082031 L 1419.238281 372.082031 C 1423.734375 378.929688 1420.003906 373.246094 1427.828125 385.1875 Z M 1427.828125 385.1875 "/><path style=" stroke:none;fill-rule:nonzero;fill:#a4a9cb;fill-opacity:1;" d="M 1421.679688 375.800781 L 1282.699219 378.042969 L 1286.605469 372.082031 L 1419.238281 372.082031 Z M 1421.679688 375.800781 "/><path style=" stroke:none;fill-rule:nonzero;fill:#a4a9cb;fill-opacity:1;" d="M 1278.011719 385.1875 L 1427.828125 385.1875 L 1427.828125 386.378906 L 1278.011719 386.378906 Z M 1278.011719 385.1875 "/><path style=" stroke:none;fill-rule:nonzero;fill:#dbddf4;fill-opacity:1;" d="M 1427.828125 403.347656 L 1278.011719 403.347656 C 1283.679688 394.703125 1281.65625 397.789062 1286.605469 390.238281 L 1419.238281 390.238281 C 1422.320312 394.945312 1420.382812 391.984375 1427.828125 403.347656 Z M 1427.828125 403.347656 "/><path style=" stroke:none;fill-rule:nonzero;fill:#a4a9cb;fill-opacity:1;" d="M 1421.675781 393.957031 L 1282.699219 396.199219 L 1286.605469 390.238281 L 1419.238281 390.238281 Z M 1421.675781 393.957031 "/><path style=" stroke:none;fill-rule:nonzero;fill:#a4a9cb;fill-opacity:1;" d="M 1278.011719 403.347656 L 1427.828125 403.347656 L 1427.828125 404.539062 L 1278.011719 404.539062 Z M 1278.011719 403.347656 "/><path style=" stroke:none;fill-rule:nonzero;fill:#dbddf4;fill-opacity:1;" d="M 1427.828125 421.511719 L 1278.011719 421.511719 C 1283.679688 412.863281 1281.65625 415.949219 1286.605469 408.398438 L 1419.238281 408.398438 C 1422.320312 413.105469 1420.382812 410.144531 1427.828125 421.511719 Z M 1427.828125 421.511719 "/><path style=" stroke:none;fill-rule:nonzero;fill:#a4a9cb;fill-opacity:1;" d="M 1421.675781 412.117188 L 1282.699219 414.359375 L 1286.605469 408.398438 L 1419.238281 408.398438 Z M 1421.675781 412.117188 "/><path style=" stroke:none;fill-rule:nonzero;fill:#a4a9cb;fill-opacity:1;" d="M 1278.011719 421.511719 L 1427.828125 421.511719 L 1427.828125 422.699219 L 1278.011719 422.699219 Z M 1278.011719 421.511719 "/><path style=" stroke:none;fill-rule:nonzero;fill:#dbddf4;fill-opacity:1;" d="M 1427.828125 439.667969 L 1278.011719 439.667969 C 1283.667969 431.042969 1281.6875 434.070312 1286.605469 426.558594 L 1419.238281 426.558594 C 1422.3125 431.246094 1420.441406 428.390625 1427.828125 439.667969 Z M 1427.828125 439.667969 "/><path style=" stroke:none;fill-rule:nonzero;fill:#a4a9cb;fill-opacity:1;" d="M 1421.679688 430.277344 L 1282.699219 432.519531 L 1286.605469 426.558594 L 1419.238281 426.558594 Z M 1421.679688 430.277344 "/><path style=" stroke:none;fill-rule:nonzero;fill:#a4a9cb;fill-opacity:1;" d="M 1278.011719 439.671875 L 1427.828125 439.671875 L 1427.828125 440.859375 L 1278.011719 440.859375 Z M 1278.011719 439.671875 "/></g></svg>